<svg xmlns="http://www.w3.org/2000/svg" xmlns:xlink="http://www.w3.org/1999/xlink" width="500" zoomAndPan="magnify" viewBox="0 0 375 374.999991" height="500" preserveAspectRatio="xMidYMid meet" version="1.0"><defs><g/><clipPath id="e8f0cce599"><path d="M 15.945312 0 L 337.5 0 L 337.5 374.171875 L 15.945312 374.171875 Z M 15.945312 0 " clip-rule="nonzero"/></clipPath><clipPath id="751bddf380"><path d="M 176.722656 0 L 337.5 93.542969 L 337.5 280.628906 L 176.722656 374.171875 L 15.945312 280.628906 L 15.945312 93.542969 Z M 176.722656 0 " clip-rule="nonzero"/></clipPath></defs><g clip-path="url(#e8f0cce599)"><g clip-path="url(#751bddf380)"><path fill="#0a192f" d="M 15.945312 0 L 337.5 0 L 337.5 374.171875 L 15.945312 374.171875 Z M 15.945312 0 " fill-opacity="1" fill-rule="nonzero"/></g></g><g fill="#db2778" fill-opacity="1"><g transform="translate(197.22878, 261.420151)"><g><path d="M 12.96875 0 L 12.96875 -155.84375 L 36.046875 -155.84375 L 36.046875 -21.3125 L 108.140625 -21.3125 L 108.140625 0 Z M 12.96875 0 "/></g></g></g><g fill="#db2778" fill-opacity="1"><g transform="translate(30.317346, 261.420151)"><g><path d="M 85.71875 -19.125 C 94.21875 -19.125 102.09375 -21.175781 109.34375 -25.28125 C 116.601562 -29.382812 122.722656 -34.804688 127.703125 -41.546875 L 143.75 -26.15625 C 136.71875 -17.800781 128.179688 -10.984375 118.140625 -5.703125 C 108.097656 -0.429688 97.289062 2.203125 85.71875 2.203125 C 75.164062 2.203125 65.203125 0.078125 55.828125 -4.171875 C 46.453125 -8.421875 38.316406 -14.171875 31.421875 -21.421875 C 24.535156 -28.679688 19.078125 -37.179688 15.046875 -46.921875 C 11.023438 -56.671875 9.015625 -66.96875 9.015625 -77.8125 C 9.015625 -88.800781 11.023438 -99.128906 15.046875 -108.796875 C 19.078125 -118.472656 24.535156 -126.9375 31.421875 -134.1875 C 38.316406 -141.4375 46.453125 -147.1875 55.828125 -151.4375 C 65.203125 -155.6875 75.164062 -157.8125 85.71875 -157.8125 C 95.539062 -157.8125 104.8125 -155.867188 113.53125 -151.984375 C 122.25 -148.109375 130.050781 -143.019531 136.9375 -136.71875 L 123.3125 -119.34375 C 118.46875 -124.476562 112.820312 -128.691406 106.375 -131.984375 C 99.925781 -135.285156 93.039062 -136.9375 85.71875 -136.9375 C 78.25 -136.9375 71.253906 -135.359375 64.734375 -132.203125 C 58.210938 -129.054688 52.53125 -124.769531 47.6875 -119.34375 C 42.851562 -113.925781 39.007812 -107.660156 36.15625 -100.546875 C 33.300781 -93.441406 31.875 -85.863281 31.875 -77.8125 C 31.875 -69.75 33.300781 -62.164062 36.15625 -55.0625 C 39.007812 -47.957031 42.851562 -41.726562 47.6875 -36.375 C 52.53125 -31.03125 58.210938 -26.816406 64.734375 -23.734375 C 71.253906 -20.660156 78.25 -19.125 85.71875 -19.125 Z M 85.71875 -19.125 "/></g></g></g></svg>